<svg xmlns="http://www.w3.org/2000/svg" xmlns:v="https://svgstorm.com"
viewBox = "0 0 512 512"
width="512"
height="512">
<g fill="None" fill-opacity="0.0" stroke="#000000" stroke-opacity="0.01" stroke-width="0.3"><path d="
M 0.00 512.00 
L 139.00 512.00
C 128.83 508.88 133.56 497.29 137.58 492.23 C 141.59 487.17 139.32 475.50 148.30 473.29 C 157.29 471.08 159.67 485.03 154.61 490.75 C 149.55 496.48 150.40 505.20 144.00 512.00
L 356.00 512.00
C 348.66 506.27 347.22 496.96 343.22 488.78 C 339.23 480.60 336.24 471.86 332.68 463.32 C 329.12 454.78 324.90 446.45 321.23 437.77 C 317.56 429.09 314.62 421.22 310.69 412.31 C 306.77 403.39 305.53 391.85 293.00 394.00 C 280.47 396.15 268.48 392.39 256.00 394.00
C 256.75 408.55 255.00 420.16 256.00 435.00 C 257.00 449.84 254.09 460.09 256.00 476.00 C 257.91 491.91 240.50 493.25 242.00 477.00 C 243.50 460.75 241.24 451.09 242.00 436.00 C 242.76 420.91 241.43 408.82 242.00 394.00
C 229.91 394.17 213.68 393.77 202.00 394.00 C 190.32 394.23 188.65 406.93 185.08 417.08 C 181.50 427.22 174.93 433.11 173.08 445.08 C 171.22 457.04 154.39 459.83 156.93 446.93 C 159.47 434.03 165.65 429.90 168.92 418.92 C 172.20 407.94 177.35 401.07 180.92 390.92 C 184.50 380.78 189.04 372.66 192.92 362.92 C 196.81 353.18 200.67 344.35 204.78 334.78 C 208.88 325.20 212.97 315.62 217.00 306.00
C 208.41 300.46 211.68 288.84 211.00 280.00
C 200.47 277.69 193.24 263.58 182.77 271.77 C 172.31 279.96 158.30 271.96 155.00 261.00
C 144.50 264.80 134.54 270.26 124.00 274.00
C 133.90 289.78 119.86 300.05 106.77 293.23 C 93.68 286.40 84.07 284.46 70.93 279.07 C 57.78 273.69 49.82 268.60 35.77 264.23 C 21.72 259.86 20.12 241.25 38.00 239.00
C 32.91 224.36 24.80 210.77 20.00 196.00
C 13.42 200.16 -1.29 189.56 13.23 183.23 C 27.75 176.90 44.63 169.60 59.08 163.08 C 73.52 156.56 71.47 174.75 64.00 177.00
C 70.84 190.45 76.53 205.08 83.00 219.00
C 91.99 211.90 99.58 224.72 107.69 219.69 C 115.80 214.67 123.78 213.45 132.00 209.00
C 121.08 191.15 140.14 180.19 154.69 175.69 C 169.25 171.20 183.63 160.78 198.23 156.23 C 212.83 151.68 228.23 137.15 243.00 144.00
C 248.48 144.10 254.51 136.71 260.00 136.00
C 257.29 122.99 284.05 121.39 291.00 116.00
C 283.83 98.41 309.91 90.12 319.29 85.29 C 328.68 80.47 336.52 79.11 345.75 74.61 C 354.98 70.10 362.66 66.40 371.77 62.42 C 380.88 58.45 389.63 54.91 397.92 50.87 C 406.21 46.83 417.49 41.62 427.90 46.12 C 438.31 50.62 441.41 62.11 444.39 70.75 C 447.38 79.40 459.36 92.03 453.00 106.00
C 452.74 111.42 461.18 117.38 460.00 123.00
C 471.27 119.80 476.73 140.93 474.22 150.22 C 471.71 159.51 460.76 166.73 450.92 169.92 C 441.09 173.12 430.85 179.20 420.98 182.98 C 411.10 186.75 401.18 192.34 391.31 196.31 C 381.43 200.27 371.32 205.05 361.77 209.77 C 352.22 214.49 337.44 218.48 332.00 206.00
C 316.77 211.61 302.42 219.84 287.00 225.00
C 286.42 238.67 287.77 254.56 287.00 268.00 C 286.23 281.44 290.69 296.17 281.00 306.00
C 286.18 320.03 293.04 333.46 298.77 347.23 C 304.50 361.00 310.21 375.38 315.98 389.03 C 321.74 402.67 328.51 416.64 333.78 430.22 C 339.04 443.81 346.87 458.29 351.31 471.69 C 355.74 485.10 370.95 501.46 359.00 512.00
L 512.00 512.00
L 512.00 0.00
L 249.00 0.00
C 250.19 1.16 252.42 2.16 254.00 1.00
C 259.52 9.50 263.37 13.66 266.00 23.00
C 272.08 24.18 293.64 34.07 287.67 46.67 C 281.70 59.27 263.09 55.87 260.69 71.69 C 258.30 87.52 234.78 85.05 232.75 70.25 C 230.72 55.46 209.73 58.22 206.08 44.92 C 202.42 31.63 222.79 25.02 228.00 23.00
C 232.25 14.21 233.80 4.61 245.00 0.00
L 0.00 0.00
L 0.00 512.00
M 320.00 26.00 
C 333.08 23.97 337.92 47.88 323.30 48.64 C 308.67 49.39 307.13 28.00 320.00 26.00
M 93.00 83.00 
C 107.79 81.85 107.66 106.88 93.33 105.67 C 78.99 104.45 80.62 83.96 93.00 83.00
M 146.00 105.00 
C 161.15 103.74 161.62 126.15 146.97 127.02 C 132.33 127.89 133.76 106.02 146.00 105.00
M 440.00 216.00 
C 443.36 209.17 450.97 208.33 456.75 204.61 C 462.54 200.88 459.94 188.48 469.25 187.81 C 478.57 187.14 483.41 191.38 486.71 200.30 C 490.01 209.23 501.22 204.06 504.26 215.75 C 507.31 227.44 488.29 228.00 485.08 239.08 C 481.86 250.15 464.46 254.13 461.08 239.92 C 457.69 225.72 438.95 232.36 440.00 216.00 Z"/>
</g>
<g fill="None" fill-opacity="0.0" stroke="#000000" stroke-opacity="0.99" stroke-width="0.3"><path d="
M 249.00 0.00 
L 245.00 0.00
C 233.80 4.61 232.25 14.21 228.00 23.00
C 222.79 25.02 202.42 31.63 206.08 44.92 C 209.73 58.22 230.72 55.46 232.75 70.25 C 234.78 85.05 258.30 87.52 260.69 71.69 C 263.09 55.87 281.70 59.27 287.67 46.67 C 293.64 34.07 272.08 24.18 266.00 23.00
C 263.37 13.66 259.52 9.50 254.00 1.00
C 252.42 2.16 250.19 1.16 249.00 0.00
M 263.00 37.00 
C 265.61 38.50 267.89 40.70 271.00 41.00
C 259.77 45.93 252.35 55.72 246.00 65.00
C 245.61 62.00 243.59 59.50 242.00 57.00
C 237.38 48.97 230.49 45.63 223.00 41.00
C 235.76 38.59 241.66 27.64 248.00 18.00
C 250.63 25.51 254.77 34.18 263.00 37.00 Z"/>
</g>
<g fill="None" fill-opacity="0.0" stroke="#F0DC63" stroke-opacity="1.00" stroke-width="0.3"><path d="
M 242.00 57.00 
C 247.55 49.50 253.83 41.59 263.00 37.00
C 254.77 34.18 250.63 25.51 248.00 18.00
C 241.66 27.64 235.76 38.59 223.00 41.00
C 230.49 45.63 237.38 48.97 242.00 57.00 Z"/>
</g>
<g fill="None" fill-opacity="0.0" stroke="#000000" stroke-opacity="0.95" stroke-width="0.3"><path d="
M 320.00 26.00 
C 307.13 28.00 308.67 49.39 323.30 48.64 C 337.92 47.88 333.08 23.97 320.00 26.00 Z"/>
</g>
<g fill="None" fill-opacity="0.0" stroke="#E4BD2D" stroke-opacity="1.00" stroke-width="0.3"><path d="
M 242.00 57.00 
C 243.59 59.50 245.61 62.00 246.00 65.00
C 252.35 55.72 259.77 45.93 271.00 41.00
C 267.89 40.70 265.61 38.50 263.00 37.00
C 253.83 41.59 247.55 49.50 242.00 57.00 Z"/>
</g>
<g fill="None" fill-opacity="0.0" stroke="#000000" stroke-opacity="1.00" stroke-width="0.3"><path d="
M 260.00 136.00 
C 261.84 144.87 272.90 139.73 278.08 137.08 C 283.25 134.42 291.44 131.41 297.00 129.00
C 302.61 144.23 310.84 158.58 316.00 174.00
C 318.84 180.13 322.58 186.41 325.00 193.00
C 302.25 202.86 279.63 212.80 257.00 223.00
C 253.11 216.02 245.60 210.65 239.00 207.00
C 217.76 197.62 192.82 209.42 186.00 231.00
C 183.62 238.53 183.13 247.16 185.00 255.00
C 180.84 255.20 172.39 263.30 169.25 257.75 C 166.11 252.20 165.47 246.37 162.00 241.00
C 155.64 226.26 147.92 211.53 144.00 196.00
C 155.28 190.77 167.97 186.63 179.07 181.07 C 190.18 175.52 202.91 171.34 213.69 165.69 C 224.48 160.05 242.48 158.26 243.00 144.00
C 228.23 137.15 212.83 151.68 198.23 156.23 C 183.63 160.78 169.25 171.20 154.69 175.69 C 140.14 180.19 121.08 191.15 132.00 209.00
C 123.78 213.45 115.80 214.67 107.69 219.69 C 99.58 224.72 91.99 211.90 83.00 219.00
C 76.53 205.08 70.84 190.45 64.00 177.00
C 71.47 174.75 73.52 156.56 59.08 163.08 C 44.63 169.60 27.75 176.90 13.23 183.23 C -1.29 189.56 13.42 200.16 20.00 196.00
C 24.80 210.77 32.91 224.36 38.00 239.00
C 20.12 241.25 21.72 259.86 35.77 264.23 C 49.82 268.60 57.78 273.69 70.93 279.07 C 84.07 284.46 93.68 286.40 106.77 293.23 C 119.86 300.05 133.90 289.78 124.00 274.00
C 134.54 270.26 144.50 264.80 155.00 261.00
C 158.30 271.96 172.31 279.96 182.77 271.77 C 193.24 263.58 200.47 277.69 211.00 280.00
C 211.68 288.84 208.41 300.46 217.00 306.00
C 212.97 315.62 208.88 325.20 204.78 334.78 C 200.67 344.35 196.81 353.18 192.92 362.92 C 189.04 372.66 184.50 380.78 180.92 390.92 C 177.35 401.07 172.20 407.94 168.92 418.92 C 165.65 429.90 159.47 434.03 156.93 446.93 C 154.39 459.83 171.22 457.04 173.08 445.08 C 174.93 433.11 181.50 427.22 185.08 417.08 C 188.65 406.93 190.32 394.23 202.00 394.00 C 213.68 393.77 229.91 394.17 242.00 394.00
C 241.43 408.82 242.76 420.91 242.00 436.00 C 241.24 451.09 243.50 460.75 242.00 477.00 C 240.50 493.25 257.91 491.91 256.00 476.00 C 254.09 460.09 257.00 449.84 256.00 435.00 C 255.00 420.16 256.75 408.55 256.00 394.00
C 268.48 392.39 280.47 396.15 293.00 394.00 C 305.53 391.85 306.77 403.39 310.69 412.31 C 314.62 421.22 317.56 429.09 321.23 437.77 C 324.90 446.45 329.12 454.78 332.68 463.32 C 336.24 471.86 339.23 480.60 343.22 488.78 C 347.22 496.96 348.66 506.27 356.00 512.00
L 359.00 512.00
C 370.95 501.46 355.74 485.10 351.31 471.69 C 346.87 458.29 339.04 443.81 333.78 430.22 C 328.51 416.64 321.74 402.67 315.98 389.03 C 310.21 375.38 304.50 361.00 298.77 347.23 C 293.04 333.46 286.18 320.03 281.00 306.00
C 290.69 296.17 286.23 281.44 287.00 268.00 C 287.77 254.56 286.42 238.67 287.00 225.00
C 302.42 219.84 316.77 211.61 332.00 206.00
C 337.44 218.48 352.22 214.49 361.77 209.77 C 371.32 205.05 381.43 200.27 391.31 196.31 C 401.18 192.34 411.10 186.75 420.98 182.98 C 430.85 179.20 441.09 173.12 450.92 169.92 C 460.76 166.73 471.71 159.51 474.22 150.22 C 476.73 140.93 471.27 119.80 460.00 123.00
C 448.73 126.20 467.22 148.88 454.32 152.32 C 441.42 155.76 436.65 161.06 424.77 165.77 C 412.89 170.49 406.86 172.10 394.92 178.92 C 382.99 185.75 379.89 175.34 375.00 164.00
C 364.56 139.81 353.30 115.60 344.00 91.00
C 364.15 82.83 383.83 73.18 404.00 65.00
C 408.47 63.07 410.56 60.47 415.69 59.69 C 420.82 58.92 422.89 58.08 425.92 65.08 C 428.96 72.08 433.66 81.46 436.31 88.69 C 438.95 95.93 440.23 93.26 441.77 100.23 C 443.31 107.20 448.80 103.53 453.00 106.00
C 459.36 92.03 447.38 79.40 444.39 70.75 C 441.41 62.11 438.31 50.62 427.90 46.12 C 417.49 41.62 406.21 46.83 397.92 50.87 C 389.63 54.91 380.88 58.45 371.77 62.42 C 362.66 66.40 354.98 70.10 345.75 74.61 C 336.52 79.11 328.68 80.47 319.29 85.29 C 309.91 90.12 283.83 98.41 291.00 116.00
C 284.05 121.39 257.29 122.99 260.00 136.00
M 361.00 170.00 
C 363.96 176.40 367.93 182.99 370.00 190.00
C 362.34 191.75 356.04 197.69 348.31 199.31 C 340.57 200.92 340.27 185.55 336.00 181.00
C 331.04 169.76 327.64 160.10 322.08 148.92 C 316.52 137.75 314.30 128.61 308.07 116.93 C 301.85 105.25 320.19 101.71 330.00 98.00
C 339.70 122.20 351.63 145.66 361.00 170.00
M 59.00 229.00 
C 56.33 230.14 53.93 231.66 51.00 232.00
C 45.49 217.85 38.46 204.19 33.00 190.00
C 36.21 189.69 38.85 187.55 42.00 187.00
C 44.75 185.74 47.66 183.41 51.00 183.00
C 56.96 197.04 64.08 210.66 69.00 225.00
C 65.57 225.99 62.25 227.40 59.00 229.00
M 229.00 219.00 
C 259.10 225.23 247.50 275.29 217.00 267.00 C 186.50 258.71 198.49 212.68 229.00 219.00
M 143.00 235.00 
C 144.89 239.28 147.50 243.28 148.00 248.00
C 137.86 251.88 128.12 256.94 118.00 261.00
C 116.06 256.28 114.17 251.64 112.00 247.00
C 110.40 243.26 108.87 239.63 107.00 236.00
C 117.35 231.65 127.19 225.90 138.00 223.00
C 139.04 227.21 141.81 230.80 143.00 235.00
M 86.00 269.00 
C 72.63 263.16 58.60 258.34 45.00 253.00
C 52.37 246.64 64.59 243.62 74.00 239.00
C 79.12 236.79 83.90 234.22 89.00 232.00
C 95.49 247.43 102.78 262.50 109.00 278.00
C 101.13 275.98 93.12 272.38 86.00 269.00
M 228.00 296.00 
C 224.28 293.37 226.64 286.84 226.00 282.00
C 237.00 281.93 247.35 275.85 254.00 267.00
C 263.29 255.24 257.15 237.14 272.00 233.00
C 271.35 243.85 272.87 258.54 272.00 269.00 C 271.13 279.46 276.96 297.71 264.00 297.00 C 251.04 296.29 239.86 298.36 228.00 296.00
M 242.00 311.00 
C 242.00 334.00 242.00 357.00 242.00 380.00
C 228.33 380.00 214.67 380.00 201.00 380.00
C 210.42 356.88 220.87 334.20 230.00 311.00
C 234.00 311.00 238.00 311.00 242.00 311.00
M 268.00 311.00 
C 276.92 334.25 287.42 356.95 297.00 380.00
C 283.33 380.00 269.67 380.00 256.00 380.00
C 256.00 357.00 256.00 334.00 256.00 311.00
C 260.00 311.00 264.00 311.00 268.00 311.00 Z"/>
</g>
<g fill="None" fill-opacity="0.0" stroke="#2A4C65" stroke-opacity="1.00" stroke-width="0.3"><path d="
M 404.00 65.00 
C 410.49 78.62 414.11 93.98 421.92 107.08 C 429.74 120.17 435.85 139.97 417.92 145.92 C 400.00 151.88 392.62 159.78 375.00 164.00
C 379.89 175.34 382.99 185.75 394.92 178.92 C 406.86 172.10 412.89 170.49 424.77 165.77 C 436.65 161.06 441.42 155.76 454.32 152.32 C 467.22 148.88 448.73 126.20 460.00 123.00
C 461.18 117.38 452.74 111.42 453.00 106.00
C 448.80 103.53 443.31 107.20 441.77 100.23 C 440.23 93.26 438.95 95.93 436.31 88.69 C 433.66 81.46 428.96 72.08 425.92 65.08 C 422.89 58.08 420.82 58.92 415.69 59.69 C 410.56 60.47 408.47 63.07 404.00 65.00 Z"/>
</g>
<g fill="None" fill-opacity="0.0" stroke="#3F6F92" stroke-opacity="1.00" stroke-width="0.3"><path d="
M 375.00 164.00 
C 392.62 159.78 400.00 151.88 417.92 145.92 C 435.85 139.97 429.74 120.17 421.92 107.08 C 414.11 93.98 410.49 78.62 404.00 65.00
C 383.83 73.18 364.15 82.83 344.00 91.00
C 353.30 115.60 364.56 139.81 375.00 164.00 Z"/>
</g>
<g fill="None" fill-opacity="0.0" stroke="#000000" stroke-opacity="0.95" stroke-width="0.3"><path d="
M 93.00 83.00 
C 80.62 83.96 78.99 104.45 93.33 105.67 C 107.66 106.88 107.79 81.85 93.00 83.00 Z"/>
</g>
<g fill="None" fill-opacity="0.0" stroke="#3F6E91" stroke-opacity="1.00" stroke-width="0.3"><path d="
M 336.00 181.00 
C 338.25 182.73 346.03 177.81 348.69 176.69 C 351.36 175.58 360.13 173.24 361.00 170.00
C 351.63 145.66 339.70 122.20 330.00 98.00
C 320.19 101.71 301.85 105.25 308.07 116.93 C 314.30 128.61 316.52 137.75 322.08 148.92 C 327.64 160.10 331.04 169.76 336.00 181.00 Z"/>
</g>
<g fill="None" fill-opacity="0.0" stroke="#000000" stroke-opacity="0.95" stroke-width="0.3"><path d="
M 146.00 105.00 
C 133.76 106.02 132.33 127.89 146.97 127.02 C 161.62 126.15 161.15 103.74 146.00 105.00 Z"/>
</g>
<g fill="None" fill-opacity="0.0" stroke="#3F6F92" stroke-opacity="1.00" stroke-width="0.3"><path d="
M 260.00 136.00 
C 254.51 136.71 248.48 144.10 243.00 144.00
C 242.48 158.26 224.48 160.05 213.69 165.69 C 202.91 171.34 190.18 175.52 179.07 181.07 C 167.97 186.63 155.28 190.77 144.00 196.00
C 147.92 211.53 155.64 226.26 162.00 241.00
C 164.22 242.75 171.32 238.37 174.08 237.08 C 176.83 235.78 183.98 233.77 186.00 231.00
C 192.82 209.42 217.76 197.62 239.00 207.00
C 244.72 207.25 249.99 202.97 255.08 201.08 C 260.16 199.18 265.47 196.62 270.23 194.23 C 274.98 191.84 281.41 190.52 285.69 187.69 C 289.98 184.87 297.53 184.01 301.07 181.07 C 304.62 178.13 314.60 177.68 316.00 174.00
C 310.84 158.58 302.61 144.23 297.00 129.00
C 291.44 131.41 283.25 134.42 278.08 137.08 C 272.90 139.73 261.84 144.87 260.00 136.00 Z"/>
</g>
<g fill="None" fill-opacity="0.0" stroke="#2A4C64" stroke-opacity="1.00" stroke-width="0.3"><path d="
M 336.00 181.00 
C 340.27 185.55 340.57 200.92 348.31 199.31 C 356.04 197.69 362.34 191.75 370.00 190.00
C 367.93 182.99 363.96 176.40 361.00 170.00
C 360.13 173.24 351.36 175.58 348.69 176.69 C 346.03 177.81 338.25 182.73 336.00 181.00 Z"/>
</g>
<g fill="None" fill-opacity="0.0" stroke="#2A4C65" stroke-opacity="1.00" stroke-width="0.3"><path d="
M 239.00 207.00 
C 245.60 210.65 253.11 216.02 257.00 223.00
C 279.63 212.80 302.25 202.86 325.00 193.00
C 322.58 186.41 318.84 180.13 316.00 174.00
C 314.60 177.68 304.62 178.13 301.07 181.07 C 297.53 184.01 289.98 184.87 285.69 187.69 C 281.41 190.52 274.98 191.84 270.23 194.23 C 265.47 196.62 260.16 199.18 255.08 201.08 C 249.99 202.97 244.72 207.25 239.00 207.00 Z"/>
</g>
<g fill="None" fill-opacity="0.0" stroke="#2A4C64" stroke-opacity="1.00" stroke-width="0.3"><path d="
M 42.00 187.00 
C 40.95 190.60 48.03 196.64 48.31 200.70 C 48.58 204.75 53.91 210.53 54.31 214.69 C 54.71 218.86 61.82 225.16 59.00 229.00
C 62.25 227.40 65.57 225.99 69.00 225.00
C 64.08 210.66 56.96 197.04 51.00 183.00
C 47.66 183.41 44.75 185.74 42.00 187.00 Z"/>
</g>
<g fill="None" fill-opacity="0.0" stroke="#3E6D8F" stroke-opacity="1.00" stroke-width="0.3"><path d="
M 59.00 229.00 
C 61.82 225.16 54.71 218.86 54.31 214.69 C 53.91 210.53 48.58 204.75 48.31 200.70 C 48.03 196.64 40.95 190.60 42.00 187.00
C 38.85 187.55 36.21 189.69 33.00 190.00
C 38.46 204.19 45.49 217.85 51.00 232.00
C 53.93 231.66 56.33 230.14 59.00 229.00 Z"/>
</g>
<g fill="None" fill-opacity="0.0" stroke="#000000" stroke-opacity="0.98" stroke-width="0.3"><path d="
M 440.00 216.00 
C 438.95 232.36 457.69 225.72 461.08 239.92 C 464.46 254.13 481.86 250.15 485.08 239.08 C 488.29 228.00 507.31 227.44 504.26 215.75 C 501.22 204.06 490.01 209.23 486.71 200.30 C 483.41 191.38 478.57 187.14 469.25 187.81 C 459.94 188.48 462.54 200.88 456.75 204.61 C 450.97 208.33 443.36 209.17 440.00 216.00
M 476.00 213.00 
C 478.28 215.91 482.99 216.77 484.00 220.00
C 478.02 220.60 474.98 225.97 473.00 231.00
C 471.17 228.65 469.43 225.78 468.00 223.00
C 466.25 221.36 463.14 220.76 461.00 220.00
C 463.91 215.93 471.59 213.75 472.00 207.00
C 474.40 208.09 474.67 211.00 476.00 213.00 Z"/>
</g>
<g fill="None" fill-opacity="0.0" stroke="#EAD660" stroke-opacity="1.00" stroke-width="0.3"><path d="
M 468.00 223.00 
C 470.13 222.57 476.15 213.97 476.00 213.00
C 474.67 211.00 474.40 208.09 472.00 207.00
C 471.59 213.75 463.91 215.93 461.00 220.00
C 463.14 220.76 466.25 221.36 468.00 223.00 Z"/>
</g>
<g fill="None" fill-opacity="0.0" stroke="#DFB92D" stroke-opacity="1.00" stroke-width="0.3"><path d="
M 468.00 223.00 
C 469.43 225.78 471.17 228.65 473.00 231.00
C 474.98 225.97 478.02 220.60 484.00 220.00
C 482.99 216.77 478.28 215.91 476.00 213.00
C 476.15 213.97 470.13 222.57 468.00 223.00 Z"/>
</g>
<g fill="None" fill-opacity="0.0" stroke="#CCDBE6" stroke-opacity="1.00" stroke-width="0.3"><path d="
M 229.00 219.00 
C 198.49 212.68 186.50 258.71 217.00 267.00 C 247.50 275.29 259.10 225.23 229.00 219.00
M 227.00 233.00 
C 240.14 236.99 232.52 258.83 219.33 253.67 C 206.14 248.51 213.52 228.91 227.00 233.00 Z"/>
</g>
<g fill="None" fill-opacity="0.0" stroke="#3E6D90" stroke-opacity="1.00" stroke-width="0.3"><path d="
M 112.00 247.00 
C 115.89 249.86 122.50 243.06 127.08 242.08 C 131.65 241.09 138.34 236.65 143.00 235.00
C 141.81 230.80 139.04 227.21 138.00 223.00
C 127.19 225.90 117.35 231.65 107.00 236.00
C 108.87 239.63 110.40 243.26 112.00 247.00 Z"/>
</g>
<g fill="None" fill-opacity="0.0" stroke="#2A4B64" stroke-opacity="1.00" stroke-width="0.3"><path d="
M 162.00 241.00 
C 165.47 246.37 166.11 252.20 169.25 257.75 C 172.39 263.30 180.84 255.20 185.00 255.00
C 183.13 247.16 183.62 238.53 186.00 231.00
C 183.98 233.77 176.83 235.78 174.08 237.08 C 171.32 238.37 164.22 242.75 162.00 241.00 Z"/>
</g>
<g fill="None" fill-opacity="0.0" stroke="#2A4C64" stroke-opacity="1.00" stroke-width="0.3"><path d="
M 74.00 239.00 
C 80.64 246.74 81.11 262.40 86.00 269.00
C 93.12 272.38 101.13 275.98 109.00 278.00
C 102.78 262.50 95.49 247.43 89.00 232.00
C 83.90 234.22 79.12 236.79 74.00 239.00 Z"/>
</g>
<g fill="None" fill-opacity="0.0" stroke="#000000" stroke-opacity="1.00" stroke-width="0.3"><path d="
M 227.00 233.00 
C 213.52 228.91 206.14 248.51 219.33 253.67 C 232.52 258.83 240.14 236.99 227.00 233.00 Z"/>
</g>
<g fill="None" fill-opacity="0.0" stroke="#2A4C64" stroke-opacity="1.00" stroke-width="0.3"><path d="
M 254.00 267.00 
C 252.58 275.11 257.15 286.98 255.00 296.00
C 246.00 296.00 237.00 296.00 228.00 296.00
C 239.86 298.36 251.04 296.29 264.00 297.00 C 276.96 297.71 271.13 279.46 272.00 269.00 C 272.87 258.54 271.35 243.85 272.00 233.00
C 257.15 237.14 263.29 255.24 254.00 267.00 Z"/>
</g>
<g fill="None" fill-opacity="0.0" stroke="#2A4C64" stroke-opacity="1.00" stroke-width="0.3"><path d="
M 112.00 247.00 
C 114.17 251.64 116.06 256.28 118.00 261.00
C 128.12 256.94 137.86 251.88 148.00 248.00
C 147.50 243.28 144.89 239.28 143.00 235.00
C 138.34 236.65 131.65 241.09 127.08 242.08 C 122.50 243.06 115.89 249.86 112.00 247.00 Z"/>
</g>
<g fill="None" fill-opacity="0.0" stroke="#3E6D90" stroke-opacity="1.00" stroke-width="0.3"><path d="
M 86.00 269.00 
C 81.11 262.40 80.64 246.74 74.00 239.00
C 64.59 243.62 52.37 246.64 45.00 253.00
C 58.60 258.34 72.63 263.16 86.00 269.00 Z"/>
</g>
<g fill="None" fill-opacity="0.0" stroke="#3F6E91" stroke-opacity="1.00" stroke-width="0.3"><path d="
M 228.00 296.00 
C 237.00 296.00 246.00 296.00 255.00 296.00
C 257.15 286.98 252.58 275.11 254.00 267.00
C 247.35 275.85 237.00 281.93 226.00 282.00
C 226.64 286.84 224.28 293.37 228.00 296.00 Z"/>
</g>
<g fill="None" fill-opacity="0.0" stroke="#000000" stroke-opacity="0.05" stroke-width="0.3"><path d="
M 242.00 311.00 
C 238.00 311.00 234.00 311.00 230.00 311.00
C 220.87 334.20 210.42 356.88 201.00 380.00
C 214.67 380.00 228.33 380.00 242.00 380.00
C 242.00 357.00 242.00 334.00 242.00 311.00 Z"/>
</g>
<g fill="None" fill-opacity="0.0" stroke="#000000" stroke-opacity="0.04" stroke-width="0.3"><path d="
M 268.00 311.00 
C 264.00 311.00 260.00 311.00 256.00 311.00
C 256.00 334.00 256.00 357.00 256.00 380.00
C 269.67 380.00 283.33 380.00 297.00 380.00
C 287.42 356.95 276.92 334.25 268.00 311.00 Z"/>
</g>
<g fill="None" fill-opacity="0.0" stroke="#000000" stroke-opacity="0.95" stroke-width="0.3"><path d="
M 139.00 512.00 
L 144.00 512.00
C 150.40 505.20 149.55 496.48 154.61 490.75 C 159.67 485.03 157.29 471.08 148.30 473.29 C 139.32 475.50 141.59 487.17 137.58 492.23 C 133.56 497.29 128.83 508.88 139.00 512.00 Z"/>
</g>
<g fill="#000000" fill-opacity="0.01" stroke="None">
<path d="
M 0.00 512.00 
L 139.00 512.00
C 128.83 508.88 133.56 497.29 137.58 492.23 C 141.59 487.17 139.32 475.50 148.30 473.29 C 157.29 471.08 159.67 485.03 154.61 490.75 C 149.55 496.48 150.40 505.20 144.00 512.00
L 356.00 512.00
C 348.66 506.27 347.22 496.96 343.22 488.78 C 339.23 480.60 336.24 471.86 332.68 463.32 C 329.12 454.78 324.90 446.45 321.23 437.77 C 317.56 429.09 314.62 421.22 310.69 412.31 C 306.77 403.39 305.53 391.85 293.00 394.00 C 280.47 396.15 268.48 392.39 256.00 394.00
C 256.75 408.55 255.00 420.16 256.00 435.00 C 257.00 449.84 254.09 460.09 256.00 476.00 C 257.91 491.91 240.50 493.25 242.00 477.00 C 243.50 460.75 241.24 451.09 242.00 436.00 C 242.76 420.91 241.43 408.82 242.00 394.00
C 229.91 394.17 213.68 393.77 202.00 394.00 C 190.32 394.23 188.65 406.93 185.08 417.08 C 181.50 427.22 174.93 433.11 173.08 445.08 C 171.22 457.04 154.39 459.83 156.93 446.93 C 159.47 434.03 165.65 429.90 168.92 418.92 C 172.20 407.94 177.35 401.07 180.92 390.92 C 184.50 380.78 189.04 372.66 192.92 362.92 C 196.81 353.18 200.67 344.35 204.78 334.78 C 208.88 325.20 212.97 315.62 217.00 306.00
C 208.41 300.46 211.68 288.84 211.00 280.00
C 200.47 277.69 193.24 263.58 182.77 271.77 C 172.31 279.96 158.30 271.96 155.00 261.00
C 144.50 264.80 134.54 270.26 124.00 274.00
C 133.90 289.78 119.86 300.05 106.77 293.23 C 93.68 286.40 84.07 284.46 70.93 279.07 C 57.78 273.69 49.82 268.60 35.77 264.23 C 21.72 259.86 20.12 241.25 38.00 239.00
C 32.91 224.36 24.80 210.77 20.00 196.00
C 13.42 200.16 -1.29 189.56 13.23 183.23 C 27.75 176.90 44.63 169.60 59.08 163.08 C 73.52 156.56 71.47 174.75 64.00 177.00
C 70.84 190.45 76.53 205.08 83.00 219.00
C 91.99 211.90 99.58 224.72 107.69 219.69 C 115.80 214.67 123.78 213.45 132.00 209.00
C 121.08 191.15 140.14 180.19 154.69 175.69 C 169.25 171.20 183.63 160.78 198.23 156.23 C 212.83 151.68 228.23 137.15 243.00 144.00
C 248.48 144.10 254.51 136.71 260.00 136.00
C 257.29 122.99 284.05 121.39 291.00 116.00
C 283.83 98.41 309.91 90.12 319.29 85.29 C 328.68 80.47 336.52 79.11 345.75 74.61 C 354.98 70.10 362.66 66.40 371.77 62.42 C 380.88 58.45 389.63 54.91 397.92 50.87 C 406.21 46.83 417.49 41.62 427.90 46.12 C 438.31 50.62 441.41 62.11 444.39 70.75 C 447.38 79.40 459.36 92.03 453.00 106.00
C 452.74 111.42 461.18 117.38 460.00 123.00
C 471.27 119.80 476.73 140.93 474.22 150.22 C 471.71 159.51 460.76 166.73 450.92 169.92 C 441.09 173.12 430.85 179.20 420.98 182.98 C 411.10 186.75 401.18 192.34 391.31 196.31 C 381.43 200.27 371.32 205.05 361.77 209.77 C 352.22 214.49 337.44 218.48 332.00 206.00
C 316.77 211.61 302.42 219.84 287.00 225.00
C 286.42 238.67 287.77 254.56 287.00 268.00 C 286.23 281.44 290.69 296.17 281.00 306.00
C 286.18 320.03 293.04 333.46 298.77 347.23 C 304.50 361.00 310.21 375.38 315.98 389.03 C 321.74 402.67 328.51 416.64 333.78 430.22 C 339.04 443.81 346.87 458.29 351.31 471.69 C 355.74 485.10 370.95 501.46 359.00 512.00
L 512.00 512.00
L 512.00 0.00
L 249.00 0.00
C 250.19 1.16 252.42 2.16 254.00 1.00
C 259.52 9.50 263.37 13.66 266.00 23.00
C 272.08 24.18 293.64 34.07 287.67 46.67 C 281.70 59.27 263.09 55.87 260.69 71.69 C 258.30 87.52 234.78 85.05 232.75 70.25 C 230.72 55.46 209.73 58.22 206.08 44.92 C 202.42 31.63 222.79 25.02 228.00 23.00
C 232.25 14.21 233.80 4.61 245.00 0.00
L 0.00 0.00
L 0.00 512.00
M 320.00 26.00 
C 333.08 23.97 337.92 47.88 323.30 48.64 C 308.67 49.39 307.13 28.00 320.00 26.00
M 93.00 83.00 
C 107.79 81.85 107.66 106.88 93.33 105.67 C 78.99 104.45 80.62 83.96 93.00 83.00
M 146.00 105.00 
C 161.15 103.74 161.62 126.15 146.97 127.02 C 132.33 127.89 133.76 106.02 146.00 105.00
M 440.00 216.00 
C 443.36 209.17 450.97 208.33 456.75 204.61 C 462.54 200.88 459.94 188.48 469.25 187.81 C 478.57 187.14 483.41 191.38 486.71 200.30 C 490.01 209.23 501.22 204.06 504.26 215.75 C 507.31 227.44 488.29 228.00 485.08 239.08 C 481.86 250.15 464.46 254.13 461.08 239.92 C 457.69 225.72 438.95 232.36 440.00 216.00 Z"/>
</g>
<g fill="#000000" fill-opacity="0.99" stroke="None">
<path d="
M 249.00 0.00 
L 245.00 0.00
C 233.80 4.61 232.25 14.21 228.00 23.00
C 222.79 25.02 202.42 31.63 206.08 44.92 C 209.73 58.22 230.72 55.46 232.75 70.25 C 234.78 85.05 258.30 87.52 260.69 71.69 C 263.09 55.87 281.70 59.27 287.67 46.67 C 293.64 34.07 272.08 24.18 266.00 23.00
C 263.37 13.66 259.52 9.50 254.00 1.00
C 252.42 2.16 250.19 1.16 249.00 0.00
M 263.00 37.00 
C 265.61 38.50 267.89 40.70 271.00 41.00
C 259.77 45.93 252.35 55.72 246.00 65.00
C 245.61 62.00 243.59 59.50 242.00 57.00
C 237.38 48.97 230.49 45.63 223.00 41.00
C 235.76 38.59 241.66 27.64 248.00 18.00
C 250.63 25.51 254.77 34.18 263.00 37.00 Z"/>
</g>
<g fill="#F0DC63" fill-opacity="1.00" stroke="None">
<path d="
M 242.00 57.00 
C 247.55 49.50 253.83 41.59 263.00 37.00
C 254.77 34.18 250.63 25.51 248.00 18.00
C 241.66 27.64 235.76 38.59 223.00 41.00
C 230.49 45.63 237.38 48.97 242.00 57.00 Z"/>
</g>
<g fill="#000000" fill-opacity="0.95" stroke="None">
<path d="
M 320.00 26.00 
C 307.13 28.00 308.67 49.39 323.30 48.64 C 337.92 47.88 333.08 23.97 320.00 26.00 Z"/>
</g>
<g fill="#E4BD2D" fill-opacity="1.00" stroke="None">
<path d="
M 242.00 57.00 
C 243.59 59.50 245.61 62.00 246.00 65.00
C 252.35 55.72 259.77 45.93 271.00 41.00
C 267.89 40.70 265.61 38.50 263.00 37.00
C 253.83 41.59 247.55 49.50 242.00 57.00 Z"/>
</g>
<g fill="#000000" fill-opacity="1.00" stroke="None">
<path d="
M 260.00 136.00 
C 261.84 144.87 272.90 139.73 278.08 137.08 C 283.25 134.42 291.44 131.41 297.00 129.00
C 302.61 144.23 310.84 158.58 316.00 174.00
C 318.84 180.13 322.58 186.41 325.00 193.00
C 302.25 202.86 279.63 212.80 257.00 223.00
C 253.11 216.02 245.60 210.65 239.00 207.00
C 217.76 197.62 192.82 209.42 186.00 231.00
C 183.62 238.53 183.13 247.16 185.00 255.00
C 180.84 255.20 172.39 263.30 169.25 257.75 C 166.11 252.20 165.47 246.37 162.00 241.00
C 155.64 226.26 147.92 211.53 144.00 196.00
C 155.28 190.77 167.97 186.63 179.07 181.07 C 190.18 175.52 202.91 171.34 213.69 165.69 C 224.48 160.05 242.48 158.26 243.00 144.00
C 228.23 137.15 212.83 151.68 198.23 156.23 C 183.63 160.78 169.25 171.20 154.69 175.69 C 140.14 180.19 121.08 191.15 132.00 209.00
C 123.78 213.45 115.80 214.67 107.69 219.69 C 99.58 224.72 91.99 211.90 83.00 219.00
C 76.53 205.08 70.84 190.45 64.00 177.00
C 71.47 174.75 73.52 156.56 59.08 163.08 C 44.63 169.60 27.75 176.90 13.23 183.23 C -1.29 189.56 13.42 200.16 20.00 196.00
C 24.80 210.77 32.91 224.36 38.00 239.00
C 20.12 241.25 21.72 259.86 35.77 264.23 C 49.82 268.60 57.78 273.69 70.93 279.07 C 84.07 284.46 93.68 286.40 106.77 293.23 C 119.86 300.05 133.90 289.78 124.00 274.00
C 134.54 270.26 144.50 264.80 155.00 261.00
C 158.30 271.96 172.31 279.96 182.77 271.77 C 193.24 263.58 200.47 277.69 211.00 280.00
C 211.68 288.84 208.41 300.46 217.00 306.00
C 212.97 315.62 208.88 325.20 204.78 334.78 C 200.67 344.35 196.81 353.18 192.92 362.92 C 189.04 372.66 184.50 380.78 180.92 390.92 C 177.35 401.07 172.20 407.94 168.92 418.92 C 165.65 429.90 159.47 434.03 156.93 446.93 C 154.39 459.83 171.22 457.04 173.08 445.08 C 174.93 433.11 181.50 427.22 185.08 417.08 C 188.65 406.93 190.32 394.23 202.00 394.00 C 213.68 393.77 229.91 394.17 242.00 394.00
C 241.43 408.82 242.76 420.91 242.00 436.00 C 241.24 451.09 243.50 460.75 242.00 477.00 C 240.50 493.25 257.91 491.91 256.00 476.00 C 254.09 460.09 257.00 449.84 256.00 435.00 C 255.00 420.16 256.75 408.55 256.00 394.00
C 268.48 392.39 280.47 396.15 293.00 394.00 C 305.53 391.85 306.77 403.39 310.69 412.31 C 314.62 421.22 317.56 429.09 321.23 437.77 C 324.90 446.45 329.12 454.78 332.68 463.32 C 336.24 471.86 339.23 480.60 343.22 488.78 C 347.22 496.96 348.66 506.27 356.00 512.00
L 359.00 512.00
C 370.95 501.46 355.74 485.10 351.31 471.69 C 346.87 458.29 339.04 443.81 333.78 430.22 C 328.51 416.64 321.74 402.67 315.98 389.03 C 310.21 375.38 304.50 361.00 298.77 347.23 C 293.04 333.46 286.18 320.03 281.00 306.00
C 290.69 296.17 286.23 281.44 287.00 268.00 C 287.77 254.56 286.42 238.67 287.00 225.00
C 302.42 219.84 316.77 211.61 332.00 206.00
C 337.44 218.48 352.22 214.49 361.77 209.77 C 371.32 205.05 381.43 200.27 391.31 196.31 C 401.18 192.34 411.10 186.75 420.98 182.98 C 430.85 179.20 441.09 173.12 450.92 169.92 C 460.76 166.73 471.71 159.51 474.22 150.22 C 476.73 140.93 471.27 119.80 460.00 123.00
C 448.73 126.20 467.22 148.88 454.32 152.32 C 441.42 155.76 436.65 161.06 424.77 165.77 C 412.89 170.49 406.86 172.10 394.92 178.92 C 382.99 185.75 379.89 175.34 375.00 164.00
C 364.56 139.81 353.30 115.60 344.00 91.00
C 364.15 82.83 383.83 73.18 404.00 65.00
C 408.47 63.07 410.56 60.47 415.69 59.69 C 420.82 58.92 422.89 58.08 425.92 65.08 C 428.96 72.08 433.66 81.46 436.31 88.69 C 438.95 95.93 440.23 93.26 441.77 100.23 C 443.31 107.20 448.80 103.53 453.00 106.00
C 459.36 92.03 447.38 79.40 444.39 70.75 C 441.41 62.11 438.31 50.62 427.90 46.12 C 417.49 41.62 406.21 46.83 397.92 50.87 C 389.63 54.91 380.88 58.45 371.77 62.42 C 362.66 66.40 354.98 70.10 345.75 74.61 C 336.52 79.11 328.68 80.47 319.29 85.29 C 309.91 90.12 283.83 98.41 291.00 116.00
C 284.05 121.39 257.29 122.99 260.00 136.00
M 361.00 170.00 
C 363.96 176.40 367.93 182.99 370.00 190.00
C 362.34 191.75 356.04 197.69 348.31 199.31 C 340.57 200.92 340.27 185.55 336.00 181.00
C 331.04 169.76 327.64 160.10 322.08 148.92 C 316.52 137.75 314.30 128.61 308.07 116.93 C 301.85 105.25 320.19 101.71 330.00 98.00
C 339.70 122.20 351.63 145.66 361.00 170.00
M 59.00 229.00 
C 56.33 230.14 53.93 231.66 51.00 232.00
C 45.49 217.85 38.46 204.19 33.00 190.00
C 36.21 189.69 38.85 187.55 42.00 187.00
C 44.75 185.74 47.66 183.41 51.00 183.00
C 56.96 197.04 64.08 210.66 69.00 225.00
C 65.57 225.99 62.25 227.40 59.00 229.00
M 229.00 219.00 
C 259.10 225.23 247.50 275.29 217.00 267.00 C 186.50 258.71 198.49 212.68 229.00 219.00
M 143.00 235.00 
C 144.89 239.28 147.50 243.28 148.00 248.00
C 137.86 251.88 128.12 256.94 118.00 261.00
C 116.06 256.28 114.17 251.64 112.00 247.00
C 110.40 243.26 108.87 239.63 107.00 236.00
C 117.35 231.65 127.19 225.90 138.00 223.00
C 139.04 227.21 141.81 230.80 143.00 235.00
M 86.00 269.00 
C 72.63 263.16 58.60 258.34 45.00 253.00
C 52.37 246.64 64.59 243.62 74.00 239.00
C 79.12 236.79 83.90 234.22 89.00 232.00
C 95.49 247.43 102.78 262.50 109.00 278.00
C 101.13 275.98 93.12 272.38 86.00 269.00
M 228.00 296.00 
C 224.28 293.37 226.64 286.84 226.00 282.00
C 237.00 281.93 247.35 275.85 254.00 267.00
C 263.29 255.24 257.15 237.14 272.00 233.00
C 271.35 243.85 272.87 258.54 272.00 269.00 C 271.13 279.46 276.96 297.71 264.00 297.00 C 251.04 296.29 239.86 298.36 228.00 296.00
M 242.00 311.00 
C 242.00 334.00 242.00 357.00 242.00 380.00
C 228.33 380.00 214.67 380.00 201.00 380.00
C 210.42 356.88 220.87 334.20 230.00 311.00
C 234.00 311.00 238.00 311.00 242.00 311.00
M 268.00 311.00 
C 276.92 334.25 287.42 356.95 297.00 380.00
C 283.33 380.00 269.67 380.00 256.00 380.00
C 256.00 357.00 256.00 334.00 256.00 311.00
C 260.00 311.00 264.00 311.00 268.00 311.00 Z"/>
</g>
<g fill="#2A4C65" fill-opacity="1.00" stroke="None">
<path d="
M 404.00 65.00 
C 410.49 78.62 414.11 93.98 421.92 107.08 C 429.74 120.17 435.85 139.97 417.92 145.92 C 400.00 151.88 392.62 159.78 375.00 164.00
C 379.89 175.34 382.99 185.75 394.92 178.92 C 406.86 172.10 412.89 170.49 424.77 165.77 C 436.65 161.06 441.42 155.76 454.32 152.32 C 467.22 148.88 448.73 126.20 460.00 123.00
C 461.18 117.38 452.74 111.42 453.00 106.00
C 448.80 103.53 443.31 107.20 441.77 100.23 C 440.23 93.26 438.95 95.93 436.31 88.69 C 433.66 81.46 428.96 72.08 425.92 65.08 C 422.89 58.08 420.82 58.92 415.69 59.69 C 410.56 60.47 408.47 63.07 404.00 65.00 Z"/>
</g>
<g fill="#3F6F92" fill-opacity="1.00" stroke="None">
<path d="
M 375.00 164.00 
C 392.62 159.78 400.00 151.88 417.92 145.92 C 435.85 139.97 429.74 120.17 421.92 107.08 C 414.11 93.98 410.49 78.62 404.00 65.00
C 383.83 73.18 364.15 82.83 344.00 91.00
C 353.30 115.60 364.56 139.81 375.00 164.00 Z"/>
</g>
<g fill="#000000" fill-opacity="0.95" stroke="None">
<path d="
M 93.00 83.00 
C 80.62 83.96 78.99 104.45 93.33 105.67 C 107.66 106.88 107.79 81.85 93.00 83.00 Z"/>
</g>
<g fill="#3F6E91" fill-opacity="1.00" stroke="None">
<path d="
M 336.00 181.00 
C 338.25 182.73 346.03 177.81 348.69 176.69 C 351.36 175.58 360.13 173.24 361.00 170.00
C 351.63 145.66 339.70 122.20 330.00 98.00
C 320.19 101.71 301.85 105.25 308.07 116.93 C 314.30 128.61 316.52 137.75 322.08 148.92 C 327.64 160.10 331.04 169.76 336.00 181.00 Z"/>
</g>
<g fill="#000000" fill-opacity="0.95" stroke="None">
<path d="
M 146.00 105.00 
C 133.76 106.02 132.33 127.89 146.97 127.02 C 161.62 126.15 161.15 103.74 146.00 105.00 Z"/>
</g>
<g fill="#3F6F92" fill-opacity="1.00" stroke="None">
<path d="
M 260.00 136.00 
C 254.51 136.71 248.48 144.10 243.00 144.00
C 242.48 158.26 224.48 160.05 213.69 165.69 C 202.91 171.34 190.18 175.52 179.07 181.07 C 167.97 186.63 155.28 190.77 144.00 196.00
C 147.92 211.53 155.64 226.26 162.00 241.00
C 164.22 242.75 171.32 238.37 174.08 237.08 C 176.83 235.78 183.98 233.77 186.00 231.00
C 192.82 209.42 217.76 197.62 239.00 207.00
C 244.72 207.25 249.99 202.97 255.08 201.08 C 260.16 199.18 265.47 196.62 270.23 194.23 C 274.98 191.84 281.41 190.52 285.69 187.69 C 289.98 184.87 297.53 184.01 301.07 181.07 C 304.62 178.13 314.60 177.68 316.00 174.00
C 310.84 158.58 302.61 144.23 297.00 129.00
C 291.44 131.41 283.25 134.42 278.08 137.08 C 272.90 139.73 261.84 144.87 260.00 136.00 Z"/>
</g>
<g fill="#2A4C64" fill-opacity="1.00" stroke="None">
<path d="
M 336.00 181.00 
C 340.27 185.55 340.57 200.92 348.31 199.31 C 356.04 197.69 362.34 191.75 370.00 190.00
C 367.93 182.99 363.96 176.40 361.00 170.00
C 360.13 173.24 351.36 175.58 348.69 176.69 C 346.03 177.81 338.25 182.73 336.00 181.00 Z"/>
</g>
<g fill="#2A4C65" fill-opacity="1.00" stroke="None">
<path d="
M 239.00 207.00 
C 245.60 210.65 253.11 216.02 257.00 223.00
C 279.63 212.80 302.25 202.86 325.00 193.00
C 322.58 186.41 318.84 180.13 316.00 174.00
C 314.60 177.68 304.62 178.13 301.07 181.07 C 297.53 184.01 289.98 184.87 285.69 187.69 C 281.41 190.52 274.98 191.84 270.23 194.23 C 265.47 196.62 260.16 199.18 255.08 201.08 C 249.99 202.97 244.72 207.25 239.00 207.00 Z"/>
</g>
<g fill="#2A4C64" fill-opacity="1.00" stroke="None">
<path d="
M 42.00 187.00 
C 40.95 190.60 48.03 196.64 48.31 200.70 C 48.58 204.75 53.91 210.53 54.31 214.69 C 54.71 218.86 61.82 225.16 59.00 229.00
C 62.25 227.40 65.57 225.99 69.00 225.00
C 64.08 210.66 56.96 197.04 51.00 183.00
C 47.66 183.41 44.75 185.74 42.00 187.00 Z"/>
</g>
<g fill="#3E6D8F" fill-opacity="1.00" stroke="None">
<path d="
M 59.00 229.00 
C 61.82 225.16 54.71 218.86 54.31 214.69 C 53.91 210.53 48.58 204.75 48.31 200.70 C 48.03 196.64 40.95 190.60 42.00 187.00
C 38.85 187.55 36.21 189.69 33.00 190.00
C 38.46 204.19 45.49 217.85 51.00 232.00
C 53.93 231.66 56.33 230.14 59.00 229.00 Z"/>
</g>
<g fill="#000000" fill-opacity="0.98" stroke="None">
<path d="
M 440.00 216.00 
C 438.95 232.36 457.69 225.72 461.08 239.92 C 464.46 254.13 481.86 250.15 485.08 239.08 C 488.29 228.00 507.31 227.44 504.26 215.75 C 501.22 204.06 490.01 209.23 486.71 200.30 C 483.41 191.38 478.57 187.14 469.25 187.81 C 459.94 188.48 462.54 200.88 456.75 204.61 C 450.97 208.33 443.36 209.17 440.00 216.00
M 476.00 213.00 
C 478.28 215.91 482.99 216.77 484.00 220.00
C 478.02 220.60 474.98 225.97 473.00 231.00
C 471.17 228.65 469.43 225.78 468.00 223.00
C 466.25 221.36 463.14 220.76 461.00 220.00
C 463.91 215.93 471.59 213.75 472.00 207.00
C 474.40 208.09 474.67 211.00 476.00 213.00 Z"/>
</g>
<g fill="#EAD660" fill-opacity="1.00" stroke="None">
<path d="
M 468.00 223.00 
C 470.13 222.57 476.15 213.97 476.00 213.00
C 474.67 211.00 474.40 208.09 472.00 207.00
C 471.59 213.75 463.91 215.93 461.00 220.00
C 463.14 220.76 466.25 221.36 468.00 223.00 Z"/>
</g>
<g fill="#DFB92D" fill-opacity="1.00" stroke="None">
<path d="
M 468.00 223.00 
C 469.43 225.78 471.17 228.65 473.00 231.00
C 474.98 225.97 478.02 220.60 484.00 220.00
C 482.99 216.77 478.28 215.91 476.00 213.00
C 476.15 213.97 470.13 222.57 468.00 223.00 Z"/>
</g>
<g fill="#CCDBE6" fill-opacity="1.00" stroke="None">
<path d="
M 229.00 219.00 
C 198.49 212.68 186.50 258.71 217.00 267.00 C 247.50 275.29 259.10 225.23 229.00 219.00
M 227.00 233.00 
C 240.14 236.99 232.52 258.83 219.33 253.67 C 206.14 248.51 213.52 228.91 227.00 233.00 Z"/>
</g>
<g fill="#3E6D90" fill-opacity="1.00" stroke="None">
<path d="
M 112.00 247.00 
C 115.89 249.86 122.50 243.06 127.08 242.08 C 131.65 241.09 138.34 236.65 143.00 235.00
C 141.81 230.80 139.04 227.21 138.00 223.00
C 127.19 225.90 117.35 231.65 107.00 236.00
C 108.87 239.63 110.40 243.26 112.00 247.00 Z"/>
</g>
<g fill="#2A4B64" fill-opacity="1.00" stroke="None">
<path d="
M 162.00 241.00 
C 165.47 246.37 166.11 252.20 169.25 257.75 C 172.39 263.30 180.84 255.20 185.00 255.00
C 183.13 247.16 183.62 238.53 186.00 231.00
C 183.98 233.77 176.83 235.78 174.08 237.08 C 171.32 238.37 164.22 242.75 162.00 241.00 Z"/>
</g>
<g fill="#2A4C64" fill-opacity="1.00" stroke="None">
<path d="
M 74.00 239.00 
C 80.64 246.74 81.11 262.40 86.00 269.00
C 93.12 272.38 101.13 275.98 109.00 278.00
C 102.78 262.50 95.49 247.43 89.00 232.00
C 83.90 234.22 79.12 236.79 74.00 239.00 Z"/>
</g>
<g fill="#000000" fill-opacity="1.00" stroke="None">
<path d="
M 227.00 233.00 
C 213.52 228.91 206.14 248.51 219.33 253.67 C 232.52 258.83 240.14 236.99 227.00 233.00 Z"/>
</g>
<g fill="#2A4C64" fill-opacity="1.00" stroke="None">
<path d="
M 254.00 267.00 
C 252.58 275.11 257.15 286.98 255.00 296.00
C 246.00 296.00 237.00 296.00 228.00 296.00
C 239.86 298.36 251.04 296.29 264.00 297.00 C 276.96 297.71 271.13 279.46 272.00 269.00 C 272.87 258.54 271.35 243.85 272.00 233.00
C 257.15 237.14 263.29 255.24 254.00 267.00 Z"/>
</g>
<g fill="#2A4C64" fill-opacity="1.00" stroke="None">
<path d="
M 112.00 247.00 
C 114.17 251.64 116.06 256.28 118.00 261.00
C 128.12 256.94 137.86 251.88 148.00 248.00
C 147.50 243.28 144.89 239.28 143.00 235.00
C 138.34 236.65 131.65 241.09 127.08 242.08 C 122.50 243.06 115.89 249.86 112.00 247.00 Z"/>
</g>
<g fill="#3E6D90" fill-opacity="1.00" stroke="None">
<path d="
M 86.00 269.00 
C 81.11 262.40 80.64 246.74 74.00 239.00
C 64.59 243.62 52.37 246.64 45.00 253.00
C 58.60 258.34 72.63 263.16 86.00 269.00 Z"/>
</g>
<g fill="#3F6E91" fill-opacity="1.00" stroke="None">
<path d="
M 228.00 296.00 
C 237.00 296.00 246.00 296.00 255.00 296.00
C 257.15 286.98 252.58 275.11 254.00 267.00
C 247.35 275.85 237.00 281.93 226.00 282.00
C 226.64 286.84 224.28 293.37 228.00 296.00 Z"/>
</g>
<g fill="#000000" fill-opacity="0.05" stroke="None">
<path d="
M 242.00 311.00 
C 238.00 311.00 234.00 311.00 230.00 311.00
C 220.87 334.20 210.42 356.88 201.00 380.00
C 214.67 380.00 228.33 380.00 242.00 380.00
C 242.00 357.00 242.00 334.00 242.00 311.00 Z"/>
</g>
<g fill="#000000" fill-opacity="0.04" stroke="None">
<path d="
M 268.00 311.00 
C 264.00 311.00 260.00 311.00 256.00 311.00
C 256.00 334.00 256.00 357.00 256.00 380.00
C 269.67 380.00 283.33 380.00 297.00 380.00
C 287.42 356.95 276.92 334.25 268.00 311.00 Z"/>
</g>
<g fill="#000000" fill-opacity="0.95" stroke="None">
<path d="
M 139.00 512.00 
L 144.00 512.00
C 150.40 505.20 149.55 496.48 154.61 490.75 C 159.67 485.03 157.29 471.08 148.30 473.29 C 139.32 475.50 141.59 487.17 137.58 492.23 C 133.56 497.29 128.83 508.88 139.00 512.00 Z"/>
</g>
</svg>